<svg version="1.1" xmlns="http://www.w3.org/2000/svg" xmlns:xlink="http://www.w3.org/1999/xlink" width="7.30008" height="31.13907" viewBox="0,0,7.30008,31.13907"><g transform="translate(-236.34996,-164.43046)"><g data-paper-data="{&quot;isPaintingLayer&quot;:true}" fill-rule="nonzero" stroke="none" stroke-width="1" stroke-linecap="butt" stroke-linejoin="miter" stroke-miterlimit="10" stroke-dasharray="" stroke-dashoffset="0" style="mix-blend-mode: normal"><path d="M243.43465,171.21466c-0.12308,0.4357 -0.26093,0.78648 -0.42217,1.07572c-0.34093,0.61048 -0.82094,1.07696 -1.42773,1.38712c-0.52556,0.27447 -1.09296,0.40248 -1.69236,0.37786c-0.00738,0 -0.01477,-0.00123 -0.02215,-0.00123c-0.20308,-0.01107 -0.32739,-0.01846 -0.37416,-0.01969c-0.07631,-0.00247 -0.15139,-0.00985 -0.22524,-0.02339c-0.40863,-0.07878 -0.77787,-0.27078 -1.09788,-0.57356c-0.00492,-0.00369 -0.00862,-0.00739 -0.01354,-0.01231c-0.63263,-0.61294 -1.03757,-1.22465 -1.23819,-1.86959c-0.00123,-0.00369 -0.00246,-0.00862 -0.00369,-0.01231c-0.10339,-0.34585 -0.17232,-0.62032 -0.20924,-0.83325c-0.03077,-0.17355 -0.05293,-0.23632 -0.05416,-0.23755c-0.02216,-0.06031 -0.04062,-0.12062 -0.05416,-0.18216c-0.04923,-0.14277 -0.07508,-0.29293 -0.07508,-0.44309c-0.03446,-0.07631 -0.06277,-0.15877 -0.08246,-0.2437c-0.05293,-0.22032 -0.04801,-0.44309 0.00615,-0.6511v-0.52678c0,-0.08616 0.00862,-0.17231 0.02462,-0.25724c0.04431,-0.22647 0.05785,-0.34217 0.06154,-0.39017c0.02215,-0.28062 0.10462,-0.59202 0.2597,-0.98095c0.0037,-0.00738 0.00616,-0.01354 0.00862,-0.02092c0.12554,-0.30032 0.22646,-0.50586 0.32862,-0.67202c0.47386,-0.75448 1.14588,-1.27634 1.99637,-1.55081c0.24001,-0.08123 0.49601,-0.12308 0.76433,-0.12308c0.6634,0 1.32065,0.23139 1.95575,0.68802c0.59571,0.42955 1.03142,0.95018 1.29604,1.54712c0.00123,0.00492 0.00369,0.00862 0.00615,0.01354c0.14893,0.34832 0.25231,0.69541 0.30647,1.03265c0.1317,0.72494 0.19324,1.22711 0.19324,1.58035v0.59571c0,0.39878 -0.07139,0.83326 -0.21539,1.32681z" fill="#00cccc"/><path d="M242.29592,169.29199v0.59559c0,0.26696 -0.05404,0.58463 -0.16247,0.95264c-0.09379,0.33195 -0.19472,0.59546 -0.30315,0.7903c-0.20936,0.37528 -0.49786,0.65676 -0.86612,0.84446c-0.31767,0.16603 -0.65676,0.24173 -1.01763,0.22745c-0.25995,-0.01453 -0.40063,-0.02179 -0.42229,-0.02179c-0.15164,-0.02892 -0.29232,-0.10474 -0.42229,-0.22733c-0.46192,-0.44765 -0.75781,-0.88077 -0.88778,-1.29924c-0.08652,-0.28875 -0.14449,-0.51608 -0.17317,-0.68199c-0.03618,-0.2021 -0.07569,-0.36087 -0.11914,-0.47632c0.00714,-0.00739 0.01625,-0.0128 0.02708,-0.01625c0.01095,-0.00369 0.01982,-0.00911 0.0272,-0.01637c-0.00738,-0.00726 -0.02006,-0.01809 -0.03803,-0.03249c-0.01809,-0.01452 -0.03077,-0.02535 -0.03791,-0.03249c0.02868,0 0.04677,-0.00726 0.05403,-0.02166c-0.02166,-0.02166 -0.04701,-0.03249 -0.07569,-0.03249c0.02166,-0.03618 0.03249,-0.07582 0.03249,-0.11914c0,-0.05058 -0.01464,-0.1264 -0.04332,-0.22745c-0.02904,-0.10105 -0.04332,-0.16961 -0.04332,-0.20567h-0.06499c0.05772,-0.02892 0.07212,-0.05058 0.04332,-0.06486v-0.80125c0.04332,-0.22376 0.0704,-0.40419 0.08123,-0.54118c0.01083,-0.13723 0.06671,-0.33207 0.16776,-0.58463c0.09378,-0.22376 0.16948,-0.38266 0.22745,-0.47632c0.30314,-0.48371 0.72888,-0.81209 1.27745,-0.98526c0.10105,-0.03606 0.21293,-0.05403 0.33564,-0.05403c0.37527,0 0.76322,0.14438 1.16385,0.433c0.40051,0.28862 0.68359,0.62069 0.84975,0.99609c0.10843,0.25256 0.18056,0.49442 0.21662,0.72544c0.11533,0.63497 0.1733,1.08619 0.1733,1.35327zM241.58129,170.49365c0.04332,-0.26709 0.06499,-0.55941 0.06474,-0.87683c0,-0.59189 -0.07212,-1.1513 -0.21588,-1.67808c-0.09354,-0.36099 -0.19434,-0.63165 -0.30216,-0.81196c-0.07926,-0.12284 -0.19791,-0.25626 -0.35619,-0.40063c-0.18708,-0.15889 -0.34881,-0.24899 -0.48543,-0.27065c-0.0576,-0.01452 -0.11877,-0.02166 -0.18339,-0.02166c-0.28788,0 -0.59349,0.11533 -0.91707,0.34635c-0.08628,0.06511 -0.20862,0.20579 -0.3669,0.42229c-0.16542,0.24543 -0.27336,0.51608 -0.32358,0.81209c-0.0288,0.15865 -0.05046,0.44013 -0.06474,0.84433c-0.00738,0.31755 0.06105,0.76864 0.20493,1.35327c0.15816,0.62783 0.31632,1.04643 0.4746,1.25579c0.32383,0.44013 0.55411,0.66759 0.69073,0.68211c0.30216,0.0288 0.63116,-0.09379 0.98723,-0.36801c0.35595,-0.27447 0.56998,-0.5738 0.64211,-0.89861c0.05748,-0.1589 0.10794,-0.28887 0.15102,-0.3898z" fill="#ffffff"/><path d="M243.59475,191.39903c0,0.39878 -0.0714,0.83326 -0.2154,1.32681c-0.12308,0.4357 -0.26093,0.78648 -0.42217,1.07572c-0.34094,0.61048 -0.82095,1.07695 -1.42774,1.38712c-0.52555,0.27447 -1.09295,0.40248 -1.69235,0.37786c-0.00738,0 -0.01477,-0.00123 -0.02215,-0.00123c-0.20309,-0.01107 -0.3274,-0.01846 -0.37417,-0.01969c-0.07631,-0.00246 -0.15138,-0.00984 -0.22523,-0.02338c-0.40862,-0.07876 -0.77787,-0.27077 -1.09788,-0.57355c-0.00492,-0.00369 -0.00862,-0.00739 -0.01354,-0.01231c-0.63264,-0.61294 -1.03757,-1.22465 -1.23819,-1.86959c-0.00123,-0.00369 -0.00246,-0.00862 -0.00369,-0.01231c-0.10339,-0.34586 -0.17232,-0.62033 -0.20924,-0.83326c-0.03077,-0.17354 -0.05293,-0.23631 -0.05416,-0.23754c-0.02216,-0.06031 -0.04062,-0.12062 -0.05416,-0.18216c-0.04922,-0.14278 -0.07507,-0.29293 -0.07507,-0.44309c-0.03446,-0.07632 -0.06276,-0.15878 -0.08246,-0.2437c-0.05293,-0.22031 -0.04801,-0.4431 0.00615,-0.6511v-0.52678c0,-0.08616 0.00862,-0.17232 0.02462,-0.25724c0.04431,-0.22647 0.05785,-0.34216 0.06154,-0.39016c0.02216,-0.28062 0.10462,-0.59201 0.2597,-0.98095c0.00369,-0.00738 0.00616,-0.01354 0.00862,-0.02092c0.12554,-0.30032 0.22646,-0.50586 0.32862,-0.67202c0.47386,-0.75449 1.14588,-1.27635 1.99636,-1.55082c0.24,-0.08123 0.49601,-0.12308 0.76433,-0.12308c0.66341,0 1.32065,0.23139 1.95575,0.68802c0.59571,0.42955 1.03142,0.95018 1.29604,1.54712c0.00123,0.00492 0.00369,0.00862 0.00615,0.01354c0.14892,0.34832 0.25231,0.69541 0.30647,1.03265c0.1317,0.72494 0.19324,1.22711 0.19324,1.58035v0.59571z" fill="#00cccc"/><path d="M242.24061,190.80321v0.59558c0,0.26696 -0.05403,0.58463 -0.16246,0.95264c-0.09379,0.33195 -0.19472,0.59546 -0.30315,0.7903c-0.20936,0.37527 -0.49786,0.65676 -0.86612,0.84446c-0.31767,0.16603 -0.65676,0.24172 -1.01763,0.22745c-0.25994,-0.01452 -0.40063,-0.02178 -0.42229,-0.02178c-0.15163,-0.02892 -0.29231,-0.10474 -0.42229,-0.22733c-0.46192,-0.44764 -0.7578,-0.88076 -0.88778,-1.29924c-0.08652,-0.28875 -0.14449,-0.51607 -0.17317,-0.68199c-0.03619,-0.2021 -0.07571,-0.36087 -0.11915,-0.47632c0.00714,-0.00738 0.01625,-0.0128 0.02708,-0.01624c0.01095,-0.00369 0.01982,-0.00911 0.0272,-0.01637c-0.00738,-0.00726 -0.02006,-0.01809 -0.03803,-0.03249c-0.0181,-0.01453 -0.03077,-0.02536 -0.03791,-0.0325c0.02868,0 0.04677,-0.00726 0.05403,-0.02166c-0.02166,-0.02166 -0.04701,-0.0325 -0.07569,-0.0325c0.02166,-0.03619 0.0325,-0.07581 0.0325,-0.11914c0,-0.05058 -0.01465,-0.1264 -0.04333,-0.22745c-0.02905,-0.10105 -0.04333,-0.1696 -0.04333,-0.20567h-0.06498c0.05772,-0.02892 0.07212,-0.05059 0.04332,-0.06486v-0.80125c0.04333,-0.22376 0.0704,-0.4042 0.08123,-0.54119c0.01083,-0.13723 0.06671,-0.33207 0.16776,-0.58463c0.09378,-0.22376 0.16948,-0.38266 0.22745,-0.47632c0.30315,-0.4837 0.72888,-0.81209 1.27745,-0.98526c0.10105,-0.03606 0.21293,-0.05403 0.33564,-0.05403c0.37527,0 0.76323,0.14438 1.16385,0.433c0.40051,0.28863 0.68359,0.6207 0.84975,0.99609c0.10843,0.25256 0.18055,0.49442 0.21662,0.72544c0.11533,0.63497 0.1733,1.08618 0.1733,1.35327zM241.52601,192.00486c0.04333,-0.26708 0.06499,-0.5594 0.06474,-0.87682c0,-0.59189 -0.07212,-1.1513 -0.21588,-1.67808c-0.09354,-0.361 -0.19435,-0.63164 -0.30217,-0.81196c-0.07926,-0.12284 -0.19791,-0.25626 -0.35619,-0.40063c-0.18708,-0.1589 -0.34881,-0.24899 -0.48543,-0.27065c-0.0576,-0.01453 -0.11877,-0.02167 -0.18339,-0.02167c-0.28788,0 -0.59349,0.11533 -0.91707,0.34635c-0.08628,0.06511 -0.20863,0.20579 -0.36691,0.42229c-0.16542,0.24542 -0.27336,0.51607 -0.32358,0.81208c-0.0288,0.15865 -0.05047,0.44014 -0.06474,0.84433c-0.00738,0.31755 0.06105,0.76864 0.20493,1.35327c0.15816,0.62783 0.31632,1.04643 0.4746,1.25579c0.32382,0.44013 0.5541,0.66759 0.69072,0.68211c0.30216,0.0288 0.63116,-0.09378 0.98723,-0.36801c0.35595,-0.27447 0.56999,-0.5738 0.64211,-0.89861c0.05748,-0.1589 0.10794,-0.28888 0.15102,-0.3898z" fill="#ffffff"/></g></g></svg>